<?xml version="1.0" encoding="UTF-8"?>
<svg width="297px" height="633px" viewBox="0 0 297 633" version="1.1" xmlns="http://www.w3.org/2000/svg" xmlns:xlink="http://www.w3.org/1999/xlink">
    <!-- Generator: Sketch 52.2 (67145) - http://www.bohemiancoding.com/sketch -->
    <title>asanaasana</title>
    <desc>Created with Sketch.</desc>
    <defs>
        <radialGradient cx="48.83%" cy="100%" fx="48.83%" fy="100%" r="166.923077%" gradientTransform="translate(0.488300,1.000000),scale(0.599078,1.000000),translate(-0.488300,-1.000000)" id="radialGradient-1">
            <stop stop-color="#FFA833" offset="0%"></stop>
            <stop stop-color="#FE677E" offset="100%"></stop>
        </radialGradient>
        <radialGradient cx="0%" cy="54.65%" fx="0%" fy="54.65%" r="71.7217787%" gradientTransform="translate(0.000000,0.546500),scale(0.923848,1.000000),translate(-0.000000,-0.546500)" id="radialGradient-2">
            <stop stop-color="#FFB900" offset="0%"></stop>
            <stop stop-color="#F95D8F" offset="60%"></stop>
            <stop stop-color="#F95353" offset="99.91%"></stop>
        </radialGradient>
        <linearGradient x1="0%" y1="0%" x2="100%" y2="0%" id="linearGradient-3">
            <stop stop-color="#8A86FF" offset="0%"></stop>
            <stop stop-color="#05CDFE" offset="100%"></stop>
        </linearGradient>
    </defs>
    <g id="HomePage" stroke="none" stroke-width="1" fill="none" fill-rule="evenodd">
        <g id="Desktop-HD" transform="translate(-1143.000000, -702.000000)">
            <g id="Group-4" transform="translate(-337.000000, -136.000000)">
                <g id="Asana" transform="translate(1753.054688, 1141.609375) rotate(-12.000000) translate(-1753.054688, -1141.609375) translate(1524.554688, 804.109375)">
                    <g id="asana" transform="translate(11.000000, 47.000000)">
                        <g id="Group" transform="translate(-0.000000, 0.000000)">
                            <rect id="Rectangle-path" stroke="#EFF1F5" stroke-width="2" fill="#FFFFFF" x="1" y="-3.41060513e-13" width="434" height="581" rx="5"></rect>
                            <polygon id="Shape" fill="#F9FCFF" points="2 295 434 295 434 512 2 512"></polygon>
                            <polygon id="Shape" fill="url(#radialGradient-1)" points="1 35 435 35 435 295 1 295"></polygon>
                            <path d="M34.45,20.9 C32.83,20.9 31.52,19.56 31.52,17.9 C31.52,16.25 32.82,14.9 34.45,14.9 C36.05,14.9 37.38,16.25 37.38,17.9 C37.38,19.56 36.06,20.9 34.45,20.9 L34.45,20.9 Z M37.38,21.28 C37.38,21.56 37.85,22.33 38.43,22.33 L38.8,22.33 C38.95,22.33 39.07,22.21 39.07,22.06 L39.07,13.86 C39.07,13.73 38.94,13.62 38.8,13.62 L37.65,13.62 C37.51,13.62 37.39,13.72 37.39,13.87 L37.37,13.87 L37.37,14.54 C36.67,13.66 35.55,13.3 34.43,13.3 C31.89,13.3 29.83,15.36 29.83,17.9 C29.83,20.45 31.89,22.5 34.43,22.5 C35.55,22.5 36.77,22.08 37.37,21.28 L37.38,21.28 Z M41.83,20.11 C42.6,20.65 43.43,20.91 44.25,20.91 C45.02,20.91 45.82,20.51 45.82,19.81 C45.82,18.89 44.08,18.74 42.99,18.37 C41.89,18 40.95,17.24 40.95,15.99 C40.95,14.09 42.65,13.31 44.22,13.31 C45.22,13.31 46.25,13.64 46.92,14.11 C47.15,14.29 47.02,14.49 47.02,14.49 L46.37,15.39 C46.3,15.49 46.15,15.59 46,15.49 C45.58,15.19 45.1,14.92 44.23,14.92 C43.16,14.92 42.69,15.38 42.69,15.92 C42.69,16.59 43.43,16.8 44.31,17.02 C45.85,17.44 47.53,17.94 47.53,19.82 C47.53,21.5 45.97,22.52 44.23,22.52 C42.93,22.52 41.81,22.16 40.88,21.47 C40.68,21.27 40.81,21.1 40.81,21.1 L41.44,20.2 C41.57,20.02 41.74,20.08 41.81,20.13 L41.83,20.11 Z M56.2,21.3 C56.2,21.58 56.68,22.35 57.25,22.35 L57.63,22.35 C57.77,22.35 57.89,22.23 57.89,22.08 L57.89,13.88 C57.87,13.75 57.76,13.64 57.62,13.64 L56.46,13.64 C56.32,13.64 56.21,13.74 56.2,13.89 L56.2,14.56 C55.5,13.68 54.38,13.32 53.26,13.32 C50.72,13.32 48.66,15.38 48.66,17.92 C48.66,20.47 50.72,22.52 53.26,22.52 C54.38,22.52 55.6,22.1 56.21,21.3 L56.2,21.3 Z M53.27,20.92 C51.65,20.92 50.34,19.58 50.34,17.92 C50.34,16.27 51.64,14.92 53.27,14.92 C54.89,14.92 56.2,16.27 56.2,17.92 C56.2,19.58 54.9,20.92 53.27,20.92 L53.27,20.92 Z M68.24,21.58 L68.24,17.34 C68.24,14.94 66.74,13.34 64.34,13.34 C63.18,13.34 62.24,14 61.91,14.57 C61.91,14 61.45,13.67 60.87,13.67 L60.5,13.67 C60.35,13.67 60.23,13.77 60.23,13.92 L60.23,22.1 C60.23,22.24 60.35,22.35 60.49,22.35 L61.69,22.35 L61.71,22.33 L61.74,22.33 L61.76,22.31 L61.78,22.31 L61.8,22.29 L61.84,22.25 C61.87,22.21 61.88,22.15 61.89,22.11 L61.89,17.27 C61.89,15.97 62.94,14.94 64.22,14.94 C65.52,14.94 66.55,15.98 66.55,17.27 L66.55,22.11 C66.55,22.25 66.67,22.36 66.81,22.36 L68.04,22.36 C68.04,22.34 68.06,22.34 68.07,22.34 C68.07,22.34 68.09,22.34 68.09,22.32 L68.11,22.32 C68.11,22.32 68.13,22.32 68.14,22.3 L68.18,22.26 C68.2,22.22 68.22,22.16 68.22,22.12 L68.22,21.58 L68.24,21.58 Z M77.24,21.3 C77.24,21.58 77.72,22.35 78.3,22.35 L78.67,22.35 C78.81,22.35 78.93,22.23 78.93,22.08 L78.93,13.88 C78.93,13.75 78.81,13.64 78.67,13.64 L77.5,13.64 C77.37,13.64 77.26,13.74 77.25,13.89 L77.25,14.56 C76.55,13.68 75.43,13.32 74.31,13.32 C71.77,13.32 69.71,15.38 69.71,17.92 C69.71,20.47 71.77,22.52 74.31,22.52 C75.44,22.52 76.66,22.1 77.26,21.3 L77.24,21.3 Z M74.31,20.92 C72.71,20.92 71.39,19.58 71.39,17.92 C71.39,16.27 72.69,14.92 74.32,14.92 C75.95,14.92 77.26,16.27 77.26,17.92 C77.26,19.58 75.96,20.92 74.33,20.92 L74.31,20.92 Z" id="Shape" fill="#283343"></path>
                            <path d="M23.7,18.32 C21.9,18.32 20.45,19.78 20.45,21.57 C20.45,23.37 21.91,24.83 23.71,24.83 C25.51,24.83 26.97,23.37 26.97,21.57 C26.97,19.77 25.51,18.32 23.72,18.32 L23.7,18.32 Z M15.25,18.32 C13.45,18.32 12,19.78 12,21.57 C12,23.37 13.46,24.83 15.25,24.83 C17.05,24.83 18.51,23.37 18.51,21.57 C18.51,19.77 17.06,18.32 15.26,18.32 L15.25,18.32 Z M22.73,14.25 C22.73,16.05 21.28,17.51 19.48,17.51 C17.68,17.51 16.23,16.06 16.23,14.26 C16.23,12.46 17.68,11 19.48,11 C21.28,11 22.73,12.46 22.73,14.25 L22.73,14.25 Z" id="Shape" fill="url(#radialGradient-2)"></path>
                            <g transform="translate(117.000000, 114.000000)">
                                <rect id="Rectangle-path" fill="#FFFFFF" x="1" y="4.54747351e-13" width="200" height="5" rx="1"></rect>
                                <rect id="Rectangle-path" fill="#650D00" opacity="0.07" x="0" y="42" width="202" height="20" rx="4"></rect>
                                <rect id="Rectangle-path" fill="#FFFFFF" opacity="0.2" x="31" y="11" width="140" height="5" rx="1"></rect>
                                <rect id="Rectangle-path" fill="#6967CE" x="1" y="43" width="200" height="17" rx="2"></rect>
                                <rect id="Rectangle-path" fill="#ABAAFA" opacity="0.5" x="86" y="50" width="30" height="3" rx="1"></rect>
                                <rect id="Rectangle-path" fill="#650D00" opacity="0.07" x="-2.27373675e-13" y="81" width="97" height="20" rx="4"></rect>
                                <rect id="Rectangle-path" fill="#FFFFFF" x="1" y="82" width="95" height="17" rx="2"></rect>
                                <rect id="Rectangle-path" fill="#F5F6F8" x="34" y="89" width="30" height="3" rx="1"></rect>
                                <rect id="Rectangle-path" fill="#650D00" opacity="0.07" x="105" y="81" width="97" height="20" rx="4"></rect>
                                <rect id="Rectangle-path" fill="#6967CE" x="106" y="82" width="95" height="17" rx="2"></rect>
                                <rect id="Rectangle-path" fill="#ABAAFA" opacity="0.5" x="139" y="89" width="30" height="3" rx="1"></rect>
                                <polygon id="Shape" fill="#FFFFFF" opacity="0.2" points="1 70 201 70 201 71 1 71"></polygon>
                            </g>
                            <path d="M199,346.73 C199,340.78 203.7,336 209.5,336 C213.05,336 215.86,337.5 217.5,339.92 C219.14,337.52 221.95,336 225.5,336 C231.3,336 236,340.78 236,346.73 C236,352.53 228.03,361.41 218,368.33 L217.5,368.6 L217,368.32 C206.97,361.42 199,352.54 199,346.72 L199,346.73 Z" id="Shape" fill="#FFB101"></path>
                            <path d="M217.1,339.4 C217.25,339.57 217.38,339.74 217.5,339.92 L217.5,359 L205.94,359 C204.54,357.53 203.31,356.06 202.28,354.63 L217.11,339.4 L217.1,339.4 Z" id="Shape" fill="#23DFD2"></path>
                            <path d="M229.06,359 C230.46,357.53 231.69,356.06 232.72,354.63 L217.9,339.4 C217.75,339.57 217.62,339.74 217.5,339.92 L217.5,359 L229.06,359 L229.06,359 Z" id="Shape" fill="#C86DD2"></path>
                            <path d="M217.5,368.6 L217,368.32 C212.8,365.42 208.98,362.22 205.94,359 L217.5,359 L217.5,368.6 L217.5,368.6 Z" id="Shape" fill="#32B4FF"></path>
                            <path d="M217.5,368.6 L218,368.32 C222.2,365.42 226.02,362.22 229.06,359 L217.5,359 L217.5,368.6 L217.5,368.6 Z" id="Shape" fill="#5D27FF"></path>
                            <path d="M217.9,339.4 C219.57,337.3 222.2,336 225.5,336 C231.3,336 236,340.78 236,346.73 C236,349 234.8,351.73 232.72,354.63 L217.9,339.4 L217.9,339.4 Z" id="Shape" fill="#FA5D85"></path>
                            <rect id="Rectangle-path" fill="#DFE9F3" x="148" y="393" width="140" height="5" rx="1"></rect>
                            <path d="M118,411.998957 C118,411.447248 118.440431,411 119.004947,411 L316.995053,411 C317.55007,411 318,411.44266 318,411.998957 L318,413.001043 C318,413.552752 317.559569,414 316.995053,414 L119.004947,414 C118.44993,414 118,413.55734 118,413.001043 L118,411.998957 Z" id="Rectangle-path" fill="#DFE9F2" opacity="0.4"></path>
                            <rect id="Rectangle-path" fill="#DFE9F2" opacity="0.4" x="119" y="421" width="200" height="3" rx="1"></rect>
                            <path d="M148,431.998957 C148,431.447248 148.452779,431 149.007221,431 L286.992779,431 C287.549052,431 288,431.44266 288,431.998957 L288,433.001043 C288,433.552752 287.547221,434 286.992779,434 L149.007221,434 C148.450948,434 148,433.55734 148,433.001043 L148,431.998957 Z" id="Rectangle-path" fill="#DFE9F2" opacity="0.4"></path>
                            <path d="M-4.54747351e-13,512 L436,512 L436,576 C436,579.3 433.3,582 430,582 L6,582 C2.7,582 -4.54747351e-13,579.32 -4.54747351e-13,576 L-4.54747351e-13,512 L-4.54747351e-13,512 Z" id="Shape" fill="url(#linearGradient-3)"></path>
                            <rect id="Rectangle-path" stroke="#6967CE" stroke-width="2" x="170" y="451" width="96" height="15" rx="2"></rect>
                            <rect id="Rectangle-path" fill="#ABAAFA" x="203" y="457" width="30" height="3" rx="1"></rect>
                            <polygon id="Shape" fill="#EFF1F5" points="1 295 435 295 435 297 1 297"></polygon>
                            <polygon id="Shape" fill-opacity="0.12" fill="#A51927" points="1 35 435 35 435 37 1 37"></polygon>
                        </g>
                    </g>
                </g>
            </g>
        </g>
    </g>
</svg>