<?xml version="1.0" encoding="UTF-8"?>
<svg version="1.1" xmlns="http://www.w3.org/2000/svg" xmlns:xlink="http://www.w3.org/1999/xlink">
    <circle fill="#B9F4BC" cx="33" cy="33" r="33"></circle>
    <path d="M20 24c0-1.7 1-2.3 2.5-1.3l13 8.6c1.4 1 1.4 2.4 0 3.4l-13 8.6c-1.4 1-2.5.4-2.5-1.3V24" fill="rgb(110, 214, 154)" fill-opacity="0.7214123999097327" transform="translate(8.14350400361069 4.596695401489411) scale(0.8607061999548664)"></path><path d="M20 24c0-1.7 1-2.3 2.5-1.3l13 8.6c1.4 1 1.4 2.4 0 3.4l-13 8.6c-1.4 1-2.5.4-2.5-1.3V24" fill="rgb(101,211,150)" fill-opacity="0.9999985428940503" transform="translate(11.846933813437191)"></path><path d="M20 24c0-1.7 1-2.3 2.5-1.3l13 8.6c1.4 1 1.4 2.4 0 3.4l-13 8.6c-1.4 1-2.5.4-2.5-1.3V24" fill="rgb(20,183,117)" fill-opacity="0.8959022355478505" transform="translate(20.327821156171954 1.7176131134604653) scale(0.9479511177739253)"></path>
</svg>