<?xml version="1.0" encoding="UTF-8"?>
<svg version="1.1" xmlns="http://www.w3.org/2000/svg" xmlns:xlink="http://www.w3.org/1999/xlink">
    <circle fill="#B9F4BC" cx="33" cy="33" r="33"></circle>
    <rect fill="none" stroke="#6ED69A" stroke-width="2" x="22" y="22" width="22" height="22" rx="1"></rect>
    <path d="M26.10204271970519,32.098328683877575 C25.002290322093696,30.998576286266083 24.002476023885077,31.298452485071827 24.002476023885077,32.99814298208619 L24.002476023885077,39.99752397611493 C24.002476023885077,41.09752397611493 24.902476023885075,41.99752397611493 26.002476023885077,41.99752397611493 L33.00185701791381,41.99752397611493 C34.70154751492817,41.99752397611493 35.10148561433105,41.09777157850343 33.901671316122425,39.89795728029481 L31.801733216719555,37.798019180891934 L37.798019180891934,31.801733216719555 L39.89795728029481,33.901671316122425 C40.99770967790631,35.00142371373392 41.99752397611493,34.70154751492817 41.99752397611493,33.00185701791381 L41.99752397611493,26.002476023885077 C41.99752397611493,24.902476023885075 41.09752397611493,24.002476023885077 39.99752397611493,24.002476023885077 L32.99814298208619,24.002476023885077 C31.298452485071827,24.002476023885077 30.898514385668953,24.902228421496567 32.098328683877575,26.10204271970519 L34.29832868387757,28.302042719705188 L28.302042719705188,34.29832868387757 L26.10204271970519,32.098328683877575" stroke="#B9F4BC" stroke-width="2" fill="#1BB978"></path>
</svg>