<?xml version="1.0" encoding="UTF-8"?>
<svg width="316px" height="492px" viewBox="0 0 316 492" version="1.1" xmlns="http://www.w3.org/2000/svg" xmlns:xlink="http://www.w3.org/1999/xlink">
    <!-- Generator: Sketch 52.2 (67145) - http://www.bohemiancoding.com/sketch -->
    <title>postmates/Post Mates Device</title>
    <desc>Created with Sketch.</desc>
    <defs>
        <path d="M-1.04904974e-12,37.3026946 C-1.04904974e-12,16.7009853 16.6983178,-2.27373675e-13 37.2901071,-2.27373675e-13 L195.709893,-2.27373675e-13 C216.30465,-2.27373675e-13 233,16.6945817 233,37.3026946 L233,422.697305 C233,443.299015 216.301682,460 195.709893,460 L37.2901071,460 C16.6953496,460 -1.04904974e-12,443.305418 -1.04904974e-12,422.697305 L-1.04904974e-12,37.3026946 Z" id="path-1"></path>
        <filter x="-2.4%" y="-1.6%" width="104.7%" height="102.4%" filterUnits="objectBoundingBox" id="filter-2">
            <feOffset dx="0" dy="-2" in="SourceAlpha" result="shadowOffsetOuter1"></feOffset>
            <feGaussianBlur stdDeviation="1.5" in="shadowOffsetOuter1" result="shadowBlurOuter1"></feGaussianBlur>
            <feColorMatrix values="0 0 0 0 0.798574207   0 0 0 0 0.805446313   0 0 0 0 0.832934736  0 0 0 1 0" type="matrix" in="shadowBlurOuter1"></feColorMatrix>
        </filter>
        <filter x="-3.6%" y="-2.3%" width="107.3%" height="103.7%" filterUnits="objectBoundingBox" id="filter-3">
            <feGaussianBlur stdDeviation="3" in="SourceAlpha" result="shadowBlurInner1"></feGaussianBlur>
            <feOffset dx="0" dy="5" in="shadowBlurInner1" result="shadowOffsetInner1"></feOffset>
            <feComposite in="shadowOffsetInner1" in2="SourceAlpha" operator="arithmetic" k2="-1" k3="1" result="shadowInnerInner1"></feComposite>
            <feColorMatrix values="0 0 0 0 0.899739583   0 0 0 0 0.899739583   0 0 0 0 0.899739583  0 0 0 1 0" type="matrix" in="shadowInnerInner1"></feColorMatrix>
        </filter>
    </defs>
    <g id="HomePage" stroke="none" stroke-width="1" fill="none" fill-rule="evenodd">
        <g id="Desktop-HD" transform="translate(-850.000000, -744.000000)">
            <g id="Group-4" transform="translate(-337.000000, -136.000000)">
                <g id="Post-Mates-Device" transform="translate(1344.618403, 1124.411577) rotate(-12.000000) translate(-1344.618403, -1124.411577) translate(1228.118403, 894.411577)">
                    <g id="Horizontal-Device-1-Copy" transform="translate(-0.000000, -0.000000)">
                        <g id="Rectangle-8" transform="translate(116.500000, 230.000000) rotate(-180.000000) translate(-116.500000, -230.000000) ">
                            <use fill="black" fill-opacity="1" filter="url(#filter-2)" xlink:href="#path-1"></use>
                            <use fill="#FFFFFF" fill-rule="evenodd" xlink:href="#path-1"></use>
                            <use fill="black" fill-opacity="1" filter="url(#filter-3)" xlink:href="#path-1"></use>
                        </g>
                    </g>
                    <g id="postmates" transform="translate(10.000000, 43.000000)">
                        <g id="Group">
                            <path d="M1,4.99078669 C1,2.23445131 3.24071482,-1.25055521e-12 5.99853395,-1.25055521e-12 L205.001466,-1.25055521e-12 C207.76208,-1.25055521e-12 210,2.23761503 210,4.99078669 L210,368.009213 C210,370.765549 207.759285,373 205.001466,373 L5.99853395,373 C3.23791988,373 1,370.762385 1,368.009213 L1,4.99078669 Z" id="Rectangle-path" stroke="#EFF1F5" stroke-width="2" fill="#FFFFFF"></path>
                            <polygon id="Shape" fill="#F7F8FA" points="2 35 209 35 209 338 2 338"></polygon>
                            <g transform="translate(54.000000, 7.000000)" fill="#1E252B" id="Shape">
                                <path d="M44.34,11.7 C44.24,12 44.04,12.27 43.82,12.48 C43.6,12.68 43.32,12.82 43.04,12.91 C42.71,13.01 42.38,13.05 42.04,13.05 L41.4,13.05 L41.4,15.81 L39.6,15.81 L39.6,8.21 L42.17,8.21 C42.49,8.21 42.8,8.25 43.11,8.33 C43.39,8.41 43.64,8.55 43.86,8.73 C44.08,8.93 44.24,9.18 44.36,9.45 C44.48,9.81 44.54,10.19 44.53,10.57 C44.53,10.97 44.48,11.35 44.35,11.72 L44.34,11.7 Z M42.54,9.9 C42.41,9.74 42.21,9.67 42.01,9.7 L41.41,9.7 L41.41,11.58 L41.98,11.58 C42.2,11.6 42.4,11.52 42.55,11.36 C42.69,11.14 42.75,10.89 42.73,10.63 C42.76,10.37 42.7,10.11 42.56,9.89 L42.54,9.9 Z M51.14,13.73 C51.04,14.17 50.87,14.59 50.61,14.96 C50.41,15.26 50.11,15.51 49.76,15.66 C49.4,15.83 49.01,15.91 48.62,15.91 C47.85,15.96 47.1,15.61 46.64,14.97 C46.16,14.34 45.92,13.35 45.92,12.01 C45.92,10.67 46.16,9.68 46.64,9.04 C47.1,8.41 47.84,8.04 48.64,8.08 C49.42,8.05 50.17,8.41 50.64,9.04 C51.11,9.68 51.34,10.66 51.34,11.99 C51.36,12.59 51.3,13.17 51.17,13.74 L51.14,13.73 Z M49.42,10.88 C49.39,10.63 49.32,10.38 49.25,10.16 C49.2,10.01 49.11,9.88 48.98,9.78 C48.88,9.7 48.75,9.66 48.62,9.66 C48.49,9.66 48.36,9.7 48.25,9.76 C48.13,9.86 48.05,10 47.99,10.16 C47.89,10.38 47.84,10.62 47.82,10.86 C47.78,11.24 47.77,11.63 47.77,12.01 C47.77,12.41 47.79,12.78 47.83,13.16 C47.85,13.41 47.91,13.66 47.99,13.88 C48.04,14.03 48.13,14.16 48.25,14.26 C48.35,14.34 48.48,14.38 48.61,14.38 C48.74,14.38 48.86,14.34 48.97,14.28 C49.09,14.18 49.19,14.04 49.23,13.88 C49.31,13.66 49.37,13.42 49.39,13.18 C49.43,12.8 49.45,12.41 49.45,12.03 C49.45,11.63 49.45,11.26 49.41,10.87 L49.41,10.89 L49.42,10.88 Z M57.44,14.63 C57.32,14.91 57.14,15.15 56.92,15.35 C56.69,15.53 56.42,15.67 56.15,15.75 C55.83,15.87 55.5,15.92 55.17,15.92 C54.9,15.92 54.63,15.89 54.37,15.82 C54.14,15.78 53.92,15.69 53.71,15.57 C53.51,15.45 53.33,15.31 53.17,15.15 C52.99,14.98 52.83,14.79 52.67,14.6 L53.92,13.48 C54.12,13.73 54.36,13.96 54.62,14.18 C54.79,14.31 55,14.38 55.22,14.4 C55.38,14.4 55.55,14.35 55.68,14.25 C55.81,14.15 55.88,13.97 55.86,13.79 C55.86,13.69 55.86,13.59 55.83,13.49 C55.81,13.39 55.77,13.31 55.7,13.24 C55.62,13.14 55.52,13.04 55.4,12.99 C55.25,12.89 55.08,12.79 54.9,12.72 C54.57,12.58 54.25,12.42 53.94,12.22 C53.71,12.08 53.5,11.92 53.31,11.7 C53.15,11.53 53.03,11.32 52.96,11.1 C52.88,10.83 52.84,10.57 52.86,10.3 C52.86,10 52.9,9.7 53.01,9.43 C53.11,9.16 53.27,8.93 53.48,8.73 C53.68,8.53 53.95,8.36 54.22,8.26 C54.54,8.14 54.87,8.08 55.22,8.09 C55.46,8.07 55.72,8.09 55.98,8.15 C56.2,8.2 56.4,8.28 56.6,8.39 C56.78,8.49 56.96,8.62 57.12,8.76 C57.29,8.92 57.45,9.09 57.59,9.26 L56.33,10.4 L55.99,10.02 L55.72,9.77 L55.44,9.63 C55.34,9.6 55.24,9.59 55.14,9.59 C54.98,9.57 54.84,9.63 54.74,9.75 C54.64,9.85 54.59,9.99 54.59,10.12 C54.59,10.22 54.61,10.32 54.64,10.4 C54.67,10.5 54.72,10.57 54.79,10.64 C54.87,10.74 54.97,10.8 55.09,10.86 C55.23,10.96 55.39,11.03 55.56,11.1 C55.89,11.24 56.22,11.4 56.53,11.6 C56.78,11.76 57,11.94 57.18,12.16 C57.34,12.36 57.46,12.59 57.54,12.83 C57.64,13.1 57.67,13.39 57.66,13.67 C57.66,14 57.6,14.33 57.48,14.63 L57.44,14.63 Z M62.24,9.78 L62.24,15.8 L60.44,15.8 L60.44,9.78 L58.89,9.78 L58.89,8.2 L63.77,8.2 L63.77,9.78 L62.23,9.78 L62.24,9.78 Z M69.84,15.8 L69.84,12.95 C69.84,12.59 69.84,12.23 69.86,11.91 L69.72,12.43 L69.54,13.01 L69.34,13.61 L69.14,14.15 L68.44,16.05 L67.74,14.15 L67.54,13.61 L67.34,13.01 L67.16,12.43 L67.01,11.93 C67.04,12.25 67.05,12.59 67.06,12.96 L67.06,15.8 L65.42,15.8 L65.42,8.2 L67.08,8.2 L67.75,10.07 C67.92,10.52 68.05,10.97 68.2,11.37 C68.3,11.71 68.4,12.05 68.47,12.4 C68.52,12.13 68.62,11.8 68.75,11.38 L69.19,10.05 L69.85,8.2 L71.48,8.2 L71.48,15.8 L69.85,15.8 L69.84,15.8 Z M76.94,15.8 L76.64,14.37 L75.16,14.37 L74.89,15.8 L73.02,15.8 L74.98,8.2 L76.83,8.2 L78.78,15.8 L76.92,15.8 L76.94,15.8 Z M76.31,12.66 L76.08,11.29 C76,10.87 75.94,10.49 75.91,10.14 L75.75,11.28 L75.51,12.65 L75.46,12.89 L76.36,12.89 L76.32,12.65 L76.31,12.66 Z M82.71,9.78 L82.71,15.8 L80.91,15.8 L80.91,9.78 L79.36,9.78 L79.36,8.2 L84.26,8.2 L84.26,9.78 L82.71,9.78 L82.71,9.78 Z M85.88,15.8 L85.88,8.2 L90.32,8.2 L90.32,9.75 L87.69,9.75 L87.69,11.05 L89.41,11.05 L89.41,12.6 L87.68,12.6 L87.68,14.25 L90.4,14.25 L90.4,15.8 L85.87,15.8 L85.88,15.8 Z M96.58,14.63 C96.48,14.91 96.3,15.15 96.08,15.35 C95.85,15.53 95.58,15.67 95.3,15.75 C94.97,15.87 94.64,15.92 94.3,15.92 C94.04,15.92 93.77,15.89 93.5,15.82 C93.28,15.78 93.06,15.69 92.85,15.57 C92.65,15.45 92.47,15.31 92.31,15.15 C92.14,14.98 91.98,14.79 91.83,14.6 L93.06,13.48 C93.26,13.73 93.5,13.96 93.76,14.18 C93.93,14.31 94.14,14.38 94.36,14.4 C94.52,14.4 94.69,14.35 94.82,14.25 C94.96,14.15 95.02,13.97 95.02,13.79 C95.02,13.69 95.02,13.59 94.98,13.49 C94.96,13.39 94.91,13.31 94.85,13.24 C94.75,13.14 94.67,13.04 94.55,12.99 C94.39,12.89 94.22,12.79 94.05,12.72 C93.71,12.58 93.39,12.42 93.08,12.22 C92.84,12.08 92.63,11.92 92.44,11.7 C92.28,11.53 92.16,11.32 92.09,11.1 C92.01,10.83 91.97,10.57 91.99,10.3 C91.97,10 92.03,9.7 92.14,9.43 C92.24,9.16 92.4,8.93 92.61,8.73 C92.81,8.53 93.06,8.36 93.34,8.26 C93.64,8.14 93.98,8.08 94.32,8.09 C94.59,8.07 94.85,8.09 95.1,8.15 C95.32,8.2 95.53,8.28 95.72,8.39 C95.9,8.49 96.08,8.62 96.22,8.77 C96.4,8.93 96.56,9.1 96.72,9.27 L95.46,10.4 L95.12,10.02 C95.04,9.92 94.95,9.84 94.85,9.77 C94.77,9.71 94.68,9.67 94.59,9.63 C94.49,9.6 94.39,9.59 94.29,9.59 C94.12,9.57 93.99,9.63 93.89,9.75 C93.79,9.85 93.73,9.99 93.74,10.12 C93.74,10.22 93.74,10.32 93.78,10.4 C93.81,10.5 93.86,10.57 93.93,10.64 C94.03,10.74 94.13,10.8 94.23,10.86 C94.39,10.96 94.55,11.03 94.71,11.1 C95.05,11.24 95.37,11.4 95.68,11.6 C95.92,11.76 96.14,11.94 96.32,12.16 C96.47,12.36 96.6,12.59 96.67,12.83 C96.75,13.1 96.79,13.39 96.77,13.67 C96.79,14 96.73,14.33 96.6,14.63 L96.58,14.63 Z M30.48,8.58 C29.56,7.28 27.98,6.64 26.41,6.96 C25.61,7.12 24.85,7.54 24.28,8.16 L23.1,7.23 C23.43,7.1 24.5,6.67 24.05,6.43 C23.85,6.36 23.61,6.33 23.38,6.31 L24.21,5.59 L24.41,5.43 L25.96,4.05 L25.24,2.62 L22.84,4.8 L22.62,5 C22.22,5 21.8,5 21.38,5.06 C20.98,5.16 20.58,5.2 20.18,5.18 C19.4,5.03 19.21,4.18 18.85,3.68 C18.65,3.41 18.25,3.38 18.21,3.14 C18.31,3.12 18.41,3.09 18.51,3.04 C18.81,2.92 19.07,2.69 19.21,2.38 C19.35,2.05 19.21,1.5 18.97,1.04 C19.15,0.91 19.81,0.38 19.79,0.29 C19.39,0.31 18.99,0.36 18.59,0.44 C18.56,0.39 18.51,0.34 18.46,0.3 C18.18,0.1 17.94,-0.13 17.26,0.16 C16.13,0.64 16.19,1.56 16.56,2.36 C16.73,2.7 17.03,2.96 17.38,3.06 L17.33,3.16 L17.36,3.09 C15.56,4.75 11.34,7.53 10.23,7.59 C11.15,7.95 13.8,7.99 14.9,7.33 C14.58,8.63 14.56,9.89 15.1,10.53 C14.74,10.78 14.4,11.07 14.06,11.37 C13.9,11.53 13.96,11.61 14.09,11.79 C14.09,11.79 15.15,11.81 15.47,11.49 C15.57,11.42 15.63,11.34 15.7,11.27 L17.2,12.33 L17.05,13.85 C15.55,13.85 14.17,14.72 13.49,16.09 C12.79,17.45 12.93,19.09 13.81,20.33 C14.74,21.63 16.33,22.26 17.88,21.95 C18.43,21.85 18.98,21.6 19.43,21.25 C21.08,20.05 21.59,17.79 20.61,15.98 L20.91,15.78 C21.21,15.96 21.59,15.94 21.87,15.73 C22.15,15.53 22.27,15.16 22.21,14.81 L23.51,14.41 C23.99,14.28 24.07,14.11 23.95,13.89 C23.79,13.55 22.55,13.85 22.39,13.66 L22.05,12.86 L22.73,7.84 L23.87,8.71 C22.71,10.41 23,12.74 24.54,14.11 C26.08,15.47 28.39,15.45 29.9,14.05 C31.42,12.65 31.66,10.35 30.46,8.65 L30.44,8.63 L30.48,8.58 Z M19.98,5.95 C20.55,5.99 21.14,5.95 21.72,5.87 L21.92,6.31 C21.49,6.34 21.05,6.39 20.66,6.46 C20.36,6.51 19.54,5.69 19.96,5.96 L19.98,5.95 Z M16.08,10.9 C16.2,10.9 16.33,10.9 16.45,10.87 C17.55,10.77 18.29,10.64 18.79,10.57 L17.42,11.87 L16.06,10.9 L16.08,10.9 Z M19.58,10.6 C19.28,11.63 19,12.35 18.8,12.86 L17.92,12.22 L19.58,10.6 L19.58,10.6 Z M17.55,14.7 C18.38,14.8 19.12,15.25 19.63,15.9 L17.29,17.43 L17.54,14.69 L17.55,14.7 Z M18.97,20.56 C18.6,20.83 18.17,21.02 17.73,21.11 C16.25,21.41 14.76,20.63 14.16,19.21 C13.56,17.81 14,16.18 15.22,15.28 C15.72,14.91 16.35,14.68 16.98,14.68 L16.68,17.98 C16.68,18.08 16.72,18.18 16.81,18.25 C16.88,18.29 16.96,18.3 17.03,18.28 C17.06,18.28 17.1,18.26 17.13,18.24 L19.95,16.4 C20.7,17.83 20.28,19.6 18.98,20.56 L18.97,20.56 Z M20.32,15.46 C19.66,14.59 18.7,14.02 17.62,13.88 L17.74,12.71 L18.64,13.37 C18.54,13.74 18.59,13.94 18.89,14.07 L20.49,14.67 C20.41,14.89 20.42,15.12 20.51,15.33 L20.31,15.47 L20.32,15.46 Z M21.32,14.04 C21.19,14.04 21.06,14.08 20.94,14.14 C20.84,14.04 20.71,13.94 20.57,13.84 C20.42,13.76 19.77,13.36 19.79,13.27 C19.96,12.81 20.17,12.37 20.41,11.92 C20.79,12.42 21.11,12.97 21.39,13.55 L21.32,14.05 L21.32,14.04 Z M21.62,11.8 L20.9,10.1 C20.93,9.86 20.9,9.6 20.85,9.38 L22.12,8.16 L21.62,11.8 L21.62,11.8 Z M20.52,8.9 C19.72,8.35 18.15,8.62 17.12,8.8 C17.47,8.05 18.09,7.27 18.3,6.37 C18.4,6.94 20.27,7.59 20.27,7.59 C20.8,7.45 21.33,7.29 21.84,7.09 L21.87,7.12 L22.15,7.32 L20.51,8.9 L20.52,8.9 Z M29.09,13.6 C28.71,13.88 28.29,14.07 27.83,14.16 C26.56,14.42 25.26,13.86 24.53,12.76 C23.81,11.68 23.83,10.26 24.53,9.16 L27.13,11.1 C27.25,11.2 27.4,11.16 27.48,11.05 C27.56,10.95 27.53,10.79 27.43,10.7 L24.89,8.7 C25.35,8.22 25.92,7.9 26.56,7.77 C28.04,7.47 29.53,8.27 30.13,9.67 C30.73,11.07 30.29,12.71 29.06,13.61 L29.08,13.61 L29.09,13.6 Z M9.52,11.56 L8.74,10.14 L8.54,11.76 L6.97,12.08 L8.43,12.78 L8.23,14.38 L9.33,13.18 L10.79,13.88 L10.02,12.45 L11.12,11.25 L9.52,11.55 L9.52,11.56 Z M8.82,18.44 L8.02,17.01 L7.85,18.64 L6.27,18.96 L7.73,19.64 L7.53,21.26 L8.63,20.06 L10.09,20.74 L9.31,19.31 L10.39,18.11 L8.81,18.45 L8.82,18.44 Z M3.54,15.97 L2.76,14.54 L2.56,16.16 L0.99,16.49 L2.45,17.16 L2.27,18.78 L3.37,17.58 L4.82,18.25 L4.04,16.83 L5.14,15.63 L3.54,15.95 L3.54,15.97 Z M21.2,4.64 C21.42,4.64 21.93,4.61 22.5,4.64 L24.92,2.44 L23.87,2.34 L21.19,4.64 L21.2,4.64 Z"></path>
                            </g>
                            <path d="M14,49.9972185 C14,48.3419004 15.3470557,47 17.0037017,47 L98.9962983,47 C100.655197,47 102,48.3401404 102,49.9972185 L102,169.002782 C102,170.6581 100.652944,172 98.9962983,172 L17.0037017,172 C15.344803,172 14,170.65986 14,169.002782 L14,49.9972185 Z" id="Rectangle-path" fill="#EBEEF3"></path>
                            <path d="M15,49.9906724 C15,48.8912544 15.893354,48 16.999221,48 L99.000779,48 C100.104918,48 101,48.8947148 101,49.9906724 L101,168.009328 C101,169.108746 100.106646,170 99.000779,170 L16.999221,170 C15.8950817,170 15,169.105285 15,168.009328 L15,49.9906724 Z" id="Rectangle-path" fill="#FFFFFF"></path>
                            <path d="M109,49.9972185 C109,48.3419004 110.347056,47 112.003702,47 L193.996298,47 C195.655197,47 197,48.3401404 197,49.9972185 L197,169.002782 C197,170.6581 195.652944,172 193.996298,172 L112.003702,172 C110.344803,172 109,170.65986 109,169.002782 L109,49.9972185 Z" id="Rectangle-path" fill="#EBEEF3"></path>
                            <path d="M110,49.9906724 C110,48.8912544 110.893354,48 111.999221,48 L194.000779,48 C195.104918,48 196,48.8947148 196,49.9906724 L196,168.009328 C196,169.108746 195.106646,170 194.000779,170 L111.999221,170 C110.895082,170 110,169.105285 110,168.009328 L110,49.9906724 Z" id="Rectangle-path" fill="#FFFFFF"></path>
                            <rect id="Rectangle-path" fill="#EBEEF3" x="14" y="179" width="88" height="125" rx="3"></rect>
                            <rect id="Rectangle-path" fill="#EBEEF3" x="109" y="179" width="88" height="125" rx="3"></rect>
                            <rect id="Rectangle-path" fill="#FFFFFF" x="15" y="180" width="86" height="122" rx="2"></rect>
                            <rect id="Rectangle-path" fill="#FFFFFF" x="110" y="180" width="86" height="122" rx="2"></rect>
                            <rect id="Rectangle-path" fill="#EBEEF3" x="14" y="311" width="88" height="27" rx="3"></rect>
                            <rect id="Rectangle-path" fill="#EBEEF3" x="109" y="311" width="88" height="27" rx="3"></rect>
                            <rect id="Rectangle-path" fill="#F4FBFF" x="15" y="312" width="86" height="26" rx="2"></rect>
                            <rect id="Rectangle-path" fill="#FCFFF3" x="110" y="312" width="86" height="26" rx="2"></rect>
                            <polygon id="Shape" fill="#E78A2E" opacity="0.07" points="15 48 101 48 101 125 15 125"></polygon>
                            <polygon id="Shape" fill="#00AFAB" points="-7.95807864e-13 338 211 338 211 374 -7.95807864e-13 374"></polygon>
                            <g transform="translate(41.000000, 72.000000)">
                                <path d="M3.18,27.06 C3.38,26.78 3.85,26.56 4.2,26.56 L29.8,26.56 C30.15,26.56 30.6,26.78 30.82,27.06 L31.02,27.34 C31.24,27.62 31.12,27.84 30.75,27.84 L3.25,27.84 C2.88,27.84 2.75,27.62 2.97,27.34 L3.17,27.06 L3.18,27.06 Z" id="Shape" fill="#EFF1F5"></path>
                                <path d="M33.03,22 L33.03,23.07 C33.03,25.27 31.29,27.04 29.13,27.04 L4.54,27.04 C2.4,27.04 0.66,25.26 0.66,23.07 L0.66,22 C5.52,20.35 11.02,19.43 16.86,19.43 C22.68,19.43 28.18,20.35 33.04,21.99 L33.03,22 Z M32.98,12.02 C33.01,11.74 33.03,11.46 33.03,11.17 C33.03,5 25.78,0 16.83,0 C7.9,0 0.66,5 0.66,11.17 C0.66,11.47 0.66,11.74 0.7,12.02 C4.5,14.57 10.3,16.19 16.84,16.19 C23.36,16.19 29.18,14.56 32.98,12.01 L32.98,12.02 Z" id="Shape" fill="#FF9934"></path>
                                <path d="M1.3,12.63 C1.3,12.0942838 1.72455137,11.66 2.26694101,11.66 L32.063059,11.66 C32.5970858,11.66 33.03,12.0905489 33.03,12.63 L33.03,12.63 C33.03,13.1657162 32.6054486,13.6 32.063059,13.6 L2.26694101,13.6 C1.73291424,13.6 1.3,13.1694511 1.3,12.63 L1.3,12.63 Z" id="Rectangle-path" fill="#E8023A"></path>
                                <rect id="Rectangle-path" fill="#7C4409" x="-1.13686838e-13" y="14.57" width="34" height="6.15" rx="3.075"></rect>
                                <path d="M1.94,16.19 C1.94,15.8310149 2.23800925,15.54 2.59689233,15.54 L31.3931077,15.54 C31.7558993,15.54 32.05,15.8285121 32.05,16.19 L32.05,16.19 C32.05,16.5489851 31.7519908,16.84 31.3931077,16.84 L2.59689233,16.84 C2.23410072,16.84 1.94,16.5514879 1.94,16.19 L1.94,16.19 Z" id="Rectangle-path" fill="#884D0B"></path>
                                <path d="M13.28,22.02 L31.72,22.02 C32.09,22.02 32.38,21.72 32.38,21.37 C32.38,21.01 32.08,20.72 31.72,20.72 L1.62,20.72 C1.26,20.72 0.97,21.02 0.97,21.37 C0.97,21.73 1.27,22.02 1.63,22.02 L6,22.02 L10.04,24.45 L13.28,22.02 L13.28,22.02 Z" id="Shape" fill="#FFEE49"></path>
                                <path d="M1.3,13.92 C1.3,13.74 1.44,13.6 1.62,13.6 L32.7,13.6 C32.88,13.6 33.03,13.74 33.03,13.92 L33.03,14.25 C33.03,14.43 32.88,14.57 32.7,14.57 L1.62,14.57 C1.44,14.57 1.3,14.43 1.3,14.25 L1.3,13.92 L1.3,13.92 Z M15.87,14.57 C15.87,16.17 17.1,17.49 18.62,17.49 C19.16,17.49 19.67,17.31 20.09,17.02 C20.86,18.07 22.23,18.77 23.79,18.77 C26.19,18.77 28.16,17.1 28.16,15.05 C28.16,14.88 28.16,14.72 28.12,14.55 L15.87,14.55 L15.87,14.57 Z" id="Shape" fill="#73D974"></path>
                                <ellipse id="Oval" fill="#C86419" transform="translate(7.451247, 6.479075) rotate(-20.000000) translate(-7.451247, -6.479075) " cx="7.45124747" cy="6.47907473" rx="1.62" ry="1"></ellipse>
                                <ellipse id="Oval" fill="#C86419" transform="translate(12.299423, 8.741299) rotate(-14.000000) translate(-12.299423, -8.741299) " cx="12.2994228" cy="8.74129872" rx="1.62" ry="1"></ellipse>
                                <ellipse id="Oval" fill="#C86419" cx="17.16" cy="3.24" rx="1.62" ry="1"></ellipse>
                                <ellipse id="Oval" fill="#C86419" transform="translate(21.700450, 9.710639) rotate(7.000000) translate(-21.700450, -9.710639) " cx="21.7004502" cy="9.71063916" rx="1.62" ry="1"></ellipse>
                                <ellipse id="Oval" fill="#C86419" transform="translate(25.709603, 3.821954) rotate(23.000000) translate(-25.709603, -3.821954) " cx="25.7096025" cy="3.82195366" rx="1.62" ry="1"></ellipse>
                                <ellipse id="Oval" fill="#C86419" transform="translate(27.319101, 8.678828) rotate(15.000000) translate(-27.319101, -8.678828) " cx="27.319101" cy="8.67882843" rx="1.62" ry="1"></ellipse>
                                <path d="M31.3,25.58 C30.57,26.38 29.5,26.88 28.33,26.88 L5.33,26.88 C4.17,26.88 3.13,26.38 2.38,25.58 L31.3,25.58 L31.3,25.58 Z" id="Shape" fill="#E98329"></path>
                            </g>
                            <rect id="Rectangle-path" fill="#E3E7ED" x="36" y="143" width="44" height="3" rx="1"></rect>
                            <rect id="Rectangle-path" fill="#00AFAB" x="48" y="149" width="20" height="3" rx="1"></rect>
                            <polygon id="Shape" fill="#FCD305" opacity="0.07" points="15 180 101 180 101 257 15 257"></polygon>
                            <rect id="Rectangle-path" fill="#E3E7ED" x="36" y="275" width="44" height="3" rx="1"></rect>
                            <rect id="Rectangle-path" fill="#00AFAB" x="48" y="281" width="20" height="3" rx="1"></rect>
                            <polygon id="Shape" fill="#FF2814" opacity="0.05" points="110 48 196 48 196 125 110 125"></polygon>
                            <rect id="Rectangle-path" fill="#E3E7ED" x="131" y="143" width="44" height="3" rx="1"></rect>
                            <rect id="Rectangle-path" fill="#00AFAB" x="143" y="149" width="20" height="3" rx="1"></rect>
                            <polygon id="Shape" fill="#FF9934" opacity="0.05" points="110 180 196 180 196 257 110 257"></polygon>
                            <rect id="Rectangle-path" fill="#E3E7ED" x="131" y="275" width="44" height="3" rx="1"></rect>
                            <rect id="Rectangle-path" fill="#00AFAB" x="143" y="281" width="20" height="3" rx="1"></rect>
                            <g transform="translate(142.000000, 67.000000)">
                                <ellipse id="Oval" fill="#EFF1F5" cx="10.5" cy="34.54" rx="6.44" ry="1"></ellipse>
                                <polyline id="Shape" fill="#C3CDDC" points="8.23 8.65 7.47 2.8 3.2 0.06 2.27 1.71 5.6 3.87 6.17 8.74"></polyline>
                                <path d="M1.3,12.96 L19.7,12.96 L16.93,32 C16.8,32.9 15.96,33.64 15.03,33.64 L5.96,33.64 C5.03,33.64 4.18,32.91 4.06,32 L1.3,12.96 L1.3,12.96 Z" id="Shape" fill="#FF4F3F"></path>
                                <path d="M16.96,12.96 L19.69,12.96 L16.93,32 C16.8,32.9 15.96,33.64 15.03,33.64 L5.96,33.64 C5.03,33.64 4.18,32.91 4.06,32 L3.94,31.27 L13.12,31.27 C13.77,31.27 14.38,30.74 14.48,30.09 L16.94,12.95 L16.96,12.96 Z" id="Shape" fill="#E11A12"></path>
                                <path d="M1.06,10 C0.81,10 0.56,10.2 0.5,10.46 L0.1,12.5 C0.04,12.75 0.2,12.96 0.48,12.96 L20.52,12.96 C20.79,12.96 20.96,12.76 20.92,12.5 L20.5,10.46 C20.45,10.21 20.2,10 19.94,10 L18.7,10 L18.15,8.44 C18.07,8.2 17.79,8 17.53,8 L3.43,8 C3.17,8 2.9,8.2 2.83,8.44 L2.3,10 L1.06,10 L1.06,10 Z" id="Shape" fill="#FF715D"></path>
                                <rect id="Rectangle-path" fill="#FFFFFF" x="13" y="9.32" width="4.3" height="1.68" rx="0.84"></rect>
                            </g>
                            <path d="M49.48,232.92 C49.56,232.78 49.76,232.66 49.92,232.66 L64.87,232.66 C65.04,232.66 65.24,232.79 65.32,232.92 L65.78,233.74 C65.86,233.88 65.8,234 65.63,234 L49.16,234 C49,234 48.94,233.88 49.01,233.74 L49.49,232.92 L49.48,232.92 Z" id="Shape" fill="#EFF1F5"></path>
                            <path d="M46.68,203.64 C47.43,204.6 51.96,210.17 51.66,216.7" id="Shape" stroke="#FDD405" stroke-width="1.78"></path>
                            <path d="M67.2,203.7 C65.55,206.38 62.53,208.76 59.9,222.2" id="Shape" stroke="#F6AC0F" stroke-width="1.78"></path>
                            <path d="M49.7,216.63 C49.7,213.21 49.77,210.99 46.9,207.35" id="Shape" stroke="#FFDE17" stroke-width="1.78"></path>
                            <path d="M58.15,202.23 C58.15,205.13 57.17,222.05 56.79,222.93" id="Shape" stroke="#FFBF09" stroke-width="1.78"></path>
                            <path d="M55.13,200.07 C55.51,201.63 56.87,213.21 55.89,219.15" id="Shape" stroke="#FDD405" stroke-width="1.78"></path>
                            <path d="M60.57,203.27 C61.47,205.72 62.07,215.89 61.62,218.57" id="Shape" stroke="#FFDE17" stroke-width="1.78"></path>
                            <path d="M63.2,202.45 C63.8,204.01 65.92,214.18 63.96,220.49" id="Shape" stroke="#FFBF09" stroke-width="1.78"></path>
                            <path d="M70,207.5 C67.9,209.35 62.3,216.7 63.43,221.75" id="Shape" stroke="#FDD405" stroke-width="1.78"></path>
                            <path d="M53.02,203.34 C52.19,205.27 51.28,212.47 52.87,218.41" id="Shape" stroke="#FFDE17" stroke-width="1.78"></path>
                            <path d="M53.1,201.2 C54.08,203.56 54.98,214.7 52.94,219.08" id="Shape" stroke="#FFBF09" stroke-width="1.78"></path>
                            <path d="M55.43,212.47 C56.57,214.25 59.06,218.11 57.25,222.05" id="Shape" stroke="#F3AE3D" stroke-width="0.5"></path>
                            <path d="M60.26,201.34 C59.96,203.49 57.76,221.84 57.76,221.84" id="Shape" stroke="#FDD405" stroke-width="1.78"></path>
                            <path d="M62.45,204.16 C61.85,205.42 57.92,221.16 58.15,223.98 M50.08,201.26 C51.06,202.38 53.55,215.36 53.55,220.04" id="Shape" stroke="#F6AC0F" stroke-width="1.78"></path>
                            <path d="M50.38,203.04 C49.85,204.68 48.48,211.66 48.48,216.84 M46,206.83 C47.2,208.53 48.57,213.66 50.75,217.23 M67.13,207.5 C65.77,208.7 64.73,210.1 63.21,215.44" id="Shape" stroke="#FFBF09" stroke-width="1.78"></path>
                            <path d="M55.56,204.75 C56.39,205.79 55.74,219.08 53.16,223.31" id="Shape" stroke="#F6AC0F" stroke-width="1.78"></path>
                            <path d="M67.14,215.6 L67.54,211.73 C67.56,211.48 67.38,211.33 67.14,211.36 L62.34,212.14 C62.34,212.14 61.32,215 57.32,215 C53.32,215 52.3,212.14 52.3,212.14 L47.5,211.36 C47.26,211.32 47.08,211.48 47.1,211.73 L47.5,215.59 L67.14,215.59 L67.14,215.6 Z" id="Shape" fill-opacity="0.3" fill="#ED5900"></path>
                            <path d="M46.8,212.17 C46.77,211.92 46.96,211.77 47.2,211.8 L52.2,212.62 C52.2,212.62 53.25,215.59 57.4,215.59 C61.55,215.59 62.6,212.61 62.6,212.61 L67.6,211.79 C67.84,211.75 68.02,211.91 68,212.16 L65.87,232.66 C65.81,233.16 65.37,233.54 64.87,233.54 L49.92,233.54 C49.42,233.54 48.98,233.14 48.92,232.66 L46.8,212.16 L46.8,212.17 Z" id="Shape" fill="#FF4230"></path>
                            <path d="M51.66,212.53 L52.19,212.63 C52.19,212.63 52.24,212.79 52.39,213.03 C52.11,212.88 51.86,212.71 51.65,212.53 L51.66,212.53 Z M66.01,212.06 L67.61,211.8 C67.85,211.76 68.03,211.92 68.01,212.17 L65.88,232.67 C65.82,233.17 65.38,233.55 64.88,233.55 L49.92,233.55 C49.42,233.55 48.98,233.15 48.92,232.67 L48.82,231.77 L63.06,231.77 C63.56,231.77 64,231.37 64.06,230.89 L66,212.05 L66.01,212.06 Z" id="Shape" fill="#E11A12"></path>
                            <path d="M62.75,216.05 C62.68,217.61 60.31,218.85 57.4,218.85 C54.48,218.85 52.1,217.61 52.04,216.05 C53.38,216.97 55.28,217.55 57.4,217.55 C59.5,217.55 61.42,216.97 62.75,216.05 L62.75,216.05 Z" id="Shape" fill="#FF6B59"></path>
                            <g transform="translate(134.000000, 212.000000)">
                                <polygon id="Shape" fill="#EFF1F5" points="4.82 13.4 33.2 13.4 33.2 15 4.8 15"></polygon>
                                <path d="M3.75,4.285 C3.75,1.91845985 5.65853714,0 8.0244101,0 L29.9855899,0 C32.3462814,0 34.26,1.92327528 34.26,4.285 L34.26,4.285 C34.26,6.65154015 32.3514629,8.57 29.9855899,8.57 L8.0244101,8.57 C5.66371859,8.57 3.75,6.64672472 3.75,4.285 L3.75,4.285 Z" id="Rectangle-path" stroke="#E98329" stroke-width="1.07" fill="#FF9934"></path>
                                <path d="M-2.04636308e-12,5.085 C-2.04636308e-12,3.45852141 1.30804601,2.14 2.93441971,2.14 L35.0655803,2.14 C36.6862155,2.14 38,3.4471819 38,5.085 L38,5.085 C38,6.71147859 36.691954,8.03 35.0655803,8.03 L2.93441971,8.03 C1.31378445,8.03 -2.04636308e-12,6.7228181 -2.04636308e-12,5.085 L-2.04636308e-12,5.085 Z" id="Rectangle-path" fill="#C0472A"></path>
                                <path d="M3.75,9.645 C3.75,7.27845985 5.65853714,5.36 8.0244101,5.36 L29.9855899,5.36 C32.3462814,5.36 34.26,7.28327528 34.26,9.645 L34.26,9.645 C34.26,12.0115402 32.3514629,13.93 29.9855899,13.93 L8.0244101,13.93 C5.66371859,13.93 3.75,12.0067247 3.75,9.645 L3.75,9.645 Z" id="Rectangle-path" stroke="#E98329" stroke-width="1.07" fill="#FF9934"></path>
                                <path d="M3.8,8.97 C3.76,9.19 3.75,9.41 3.75,9.64 C3.75,12 5.65,13.94 8.02,13.94 L29.98,13.94 C32.35,13.94 34.25,12.01 34.25,9.64 C34.25,9.42 34.25,9.19 34.2,8.97 C33.88,11.02 32.12,12.59 29.98,12.59 L8.02,12.59 C5.9,12.6 4.12,11 3.8,8.96 L3.8,8.97 Z" id="Shape" fill="#E98329"></path>
                                <path d="M4.98,4.56 L5.64,3.96 L6.64,3.03 C7.02,2.69 7.61,2.69 7.98,3.03 L8.98,3.95 C9.36,4.29 9.95,4.29 10.32,3.95 L11.32,3.03 C11.7,2.69 12.29,2.69 12.66,3.03 L13.66,3.95 C14.04,4.29 14.63,4.29 15,3.95 L16,3.03 C16.37,2.69 16.97,2.69 17.34,3.03 L18.34,3.95 C18.71,4.29 19.3,4.3 19.67,3.95 L20.7,3 C21.07,2.67 21.66,2.67 22.03,3 L23.03,3.94 C23.41,4.27 24,4.28 24.36,3.94 L25.36,3.02 C25.73,2.69 26.32,2.69 26.69,3.02 L27.69,3.95 C28.06,4.29 28.64,4.3 29.02,3.95 L30.02,3.02 C30.4,2.68 30.99,2.69 31.34,3.02 L32.84,4.47" id="Shape" stroke="#FBC809" stroke-width="1.07"></path>
                                <path d="M19.27,7.765 C19.27,7.32041078 19.6251386,6.96 20.0776935,6.96 L30.7723065,6.96 C31.2183833,6.96 31.58,7.31731118 31.58,7.765 L31.58,7.765 C31.58,8.20958922 31.2248614,8.57 30.7723065,8.57 L20.0776935,8.57 C19.6316167,8.57 19.27,8.21268882 19.27,7.765 L19.27,7.765 Z" id="Rectangle-path" fill="#FFB159"></path>
                            </g>
                            <polygon id="Shape" fill-opacity="0.08" fill="#19243D" points="-1.13686838e-12 336 211 336 211 338 -1.13686838e-12 338"></polygon>
                            <rect id="Rectangle-path" fill-opacity="0.12" fill="#007872" x="82" y="352" width="47" height="8" rx="1"></rect>
                            <rect id="Rectangle-path" fill="#B2F7F6" x="83" y="353" width="45" height="5" rx="1"></rect>
                            <circle id="Oval" stroke-opacity="0.2" stroke="#B2F7F6" stroke-width="2" fill-opacity="0.2" fill="#B2F7F6" cx="19.5" cy="355.5" r="4.5"></circle>
                            <rect id="Rectangle-path" fill="#24BDB9" x="181" y="354" width="16" height="3" rx="1"></rect>
                        </g>
                    </g>
                </g>
            </g>
        </g>
    </g>
</svg>