<?xml version="1.0" encoding="UTF-8"?>
<svg viewBox="0 0 130 130" version="1.1" xmlns="http://www.w3.org/2000/svg" xmlns:xlink="http://www.w3.org/1999/xlink">
    <circle class="hover-fillLight" cx="65" cy="65" r="55" fill="#f6a4eb"></circle>
    <path d="M51.2 65h32.1c0-2.4-1.8-4.6-4.3-4.9C63.3 58 51.2 44.5 51.2 28.3V16.6c-14.1 4-25.7 13.9-31.8 26.9-.4 1-.4 2.4.2 3.5 6.3 10.7 18.2 18 31.6 18z" fill="#FFF"></path>
    <path d="M83.3 65c0 2.4-1.8 4.6-4.3 4.9-15.7 2.1-27.8 15.6-27.8 31.8v11.8c4.4 1.2 9 2 13.8 2 7.3 0 14.4-1.7 20.8-4.4 1.4-.6 2.1-1.8 2.1-3.4V97.1c0-13.8 10.1-25.2 23.4-27.2 2.4-.3 4.1-2.4 4.1-4.9v-.2l-32.1.2z" fill="#FFF"></path>
    <path class="hover-fillDark" d="M115.4 64.8c0-2.4-1.8-4.4-4.1-4.9-13.3-1.8-23.4-13.3-23.4-27V15.1c-7-3.2-14.7-5-22.9-5-4.7 0-9.3.6-13.8 1.7v16.6C51.2 44.6 63.3 58 79 60.2c2.4.3 4.3 2.4 4.3 4.9l32.1-.3c0 .2 0 .2 0 0z" fill="#9251ac"></path>
    <path class="hover-fillDark" d="M18.7 84.9c-.9 1.8-1.7 3.7-2.3 5.7 7 13.6 19.7 23.8 34.8 27.8v-16.6C51.2 85.6 63.3 72.2 79 70c2.4-.3 4.3-2.4 4.3-4.9H51.2c-14.2-.1-26.4 8-32.5 19.8z" fill="#9251ac"></path>
</svg>